PathFileType	4	(X/Y/Z)	Patient4_TMGait_0pt6_01_right_29.trc.trc
DataRate	CameraRate	NumFrames	NumMarkers	Units	OrigDataRate	OrigDataStartFrame	OrigNumFrames
82.352941176470	82.352941176470	7	33	mm	82.352941176470	106	       141
Frame#	Time	Sacral			L.Shoulder			Chest			R.Shoulder			Neck			R.ASIS			L.ASIS			R.Thigh.Superior			R.Thigh.Lateral			R.Thigh.Inferior			R.Patella			L.Thigh.Superior			L.Thigh.Lateral			L.Thigh.Inferior			L.Patella			L.Shank.Superior			L.Shank.Lateral			L.Shank.Inferior			R.Shank.Superior			R.Shank.Lateral			R.Shank.Inferior			R.Heel			R.Midfoot.Superior			R.Midfoot.Lateral			R.Toe			L.Heel			L.Midfoot.Lateral			L.Midfoot.Superior			L.Toe			L.Elbow			L.Wrist			R.Elbow			R.Wrist			
		X1	Y1	Z1	X2	Y2	Z2	X3	Y3	Z3	X4	Y4	Z4	X5	Y5	Z5	X6	Y6	Z6	X7	Y7	Z7	X8	Y8	Z8	X9	Y9	Z9	X10	Y10	Z10	X11	Y11	Z11	X12	Y12	Z12	X13	Y13	Z13	X14	Y14	Z14	X15	Y15	Z15	X16	Y16	Z16	X17	Y17	Z17	X18	Y18	Z18	X19	Y19	Z19	X20	Y20	Z20	X21	Y21	Z21	X22	Y22	Z22	X23	Y23	Z23	X24	Y24	Z24	X25	Y25	Z25	X26	Y26	Z26	X27	Y27	Z27	X28	Y28	Z28	X29	Y29	Z29	X30	Y30	Z30	X31	Y31	Z31	X32	Y32	Z32	X33	Y33	Z33	

106	35.965000000000	709.121943031248	1009.899823337790	447.691421834782	878.364944757730	1446.944631740343	277.137953572919	980.992750732422	1376.468548395493	436.910038958415	892.666686864735	1438.522119461615	611.888616449418	855.412680156163	1501.322502510510	434.048269482546	936.014262940643	951.719045010979	566.387850158079	929.497341042480	971.579146614564	291.713986196976	1029.067206012468	792.606349315502	529.711554903969	1003.223922569487	668.174044661588	602.287239658930	1090.778458880144	636.431280896783	517.313114727516	1122.336295580669	527.752328949191	538.190620598325	966.561733255547	749.776373142435	326.478609838313	871.578324406255	637.900938447640	268.356597312838	948.534259261324	557.082564288282	335.059817381152	943.790184205424	488.481901226369	347.420433926887	918.576806723798	417.553598062554	339.592628256317	829.028250542474	301.916253369315	293.778786891359	880.463249523861	193.260186930507	367.439100905297	1059.864193286463	443.523571131688	545.063505727784	951.359441210536	378.558128812900	606.437496829594	957.738224549156	270.382858914739	554.290182799750	773.110558134140	171.528308919917	526.900926900371	949.502005168689	143.163919125215	563.498675959515	842.960722566801	122.719167662859	598.849024617957	1034.260202334265	45.099535079299	588.926484130765	753.850653930410	37.351932430136	417.543937408218	823.081901399374	35.277384415191	332.170976728510	907.307609698602	96.551266659216	354.764953650219	1034.398904095309	45.101555728546	318.313285351687	940.875725238029	1111.074164579121	127.576320439391	1142.710884320760	943.861522688425	119.211980205969	852.512944817621	1084.263874434265	711.443136909352	922.641072493679	831.441368285663	703.366616172277	
107	35.977142857143	707.855488445731	1010.101009363241	446.518223264297	880.004358823925	1447.249659029462	277.484781768447	981.123993260420	1376.072540238697	437.886086266452	891.602506652957	1438.041811405511	612.272995842991	855.698384354803	1501.358229495887	434.222738690756	934.438460652657	951.853790293851	566.509898744634	928.963557425535	971.355639561620	291.815436685457	1028.058624857758	793.854552780894	529.828434552967	1003.187274221120	669.391619539587	602.850481149033	1090.385745860888	637.944948322854	517.558903368845	1123.595791871654	531.278726757352	538.699993194809	964.021188008723	748.852733588968	326.907560353429	868.091153161420	637.814554939376	267.951402759448	943.625023156975	556.265054858218	335.096024685424	938.073530873014	487.819458138769	347.404927258622	912.758418703831	417.092158027334	339.496327904850	822.852854711176	301.793674877819	293.570858480455	873.617419734989	192.989560081341	367.438226857529	1065.287863144968	445.348427028631	545.697857681654	961.178139062749	374.377996847136	607.678883131725	973.421561348812	266.771925349942	555.266809302631	794.746061302747	157.603794106254	528.550010607894	972.473062392159	139.257882322592	564.396210677635	867.533586490177	112.876470323869	600.345389060989	1062.762374162204	46.152393206020	589.550870882750	746.524042836058	37.331184642462	417.510228541086	815.731039256161	35.227537538849	332.180707219223	899.967612459105	96.496287878387	354.807289846391	1027.075603507244	45.043825426962	318.334164323557	945.777649477980	1113.246480320782	126.258520998786	1155.243932416120	955.571687665980	118.613685978599	842.683376497345	1085.122159655275	710.996803842103	900.078901258571	828.972005292877	704.451824868832	
108	35.989285714286	706.733824502850	1010.187815530563	445.414092445478	881.638435647905	1447.379753341716	277.934115003108	981.331346600593	1375.542690946302	438.920038398921	890.702316469176	1437.500162031807	612.732211757025	856.061464474469	1501.269104268784	434.469054243659	932.948326888321	951.758688776336	566.689814678379	928.356752144266	970.981558074250	292.020797904901	1026.722728320634	794.435099410839	530.141020913190	1002.296369398690	670.000097045772	603.570732306058	1089.231635060646	638.679646594162	518.142076472639	1123.886785509051	534.217604010058	539.456026985163	961.625762116711	747.890405720982	327.271284727451	864.674719430867	637.691780498656	267.547238228911	938.776670207120	555.422259410099	335.106888247343	932.451533121587	487.155986869211	347.348535899780	907.012449799533	416.611839332891	339.380722095380	816.730322249074	301.656656566426	293.347616085767	866.803111087222	192.699184452274	367.424357235086	1069.964982883647	446.840305490899	546.532872281127	970.788464429280	369.916366007121	609.150568299752	989.084613019649	263.291224171447	556.414744852423	817.314984662635	143.771280704074	530.341424563618	995.731606388623	135.927523421513	565.443885091529	892.866418465426	103.459284040245	601.970774279125	1091.430511779546	48.335685657273	590.291495077602	739.212765104765	37.321384897861	417.468483918839	808.383820860847	35.177309738702	332.188110829370	892.637783771628	96.435369826820	354.852284172099	1019.756425450602	44.967791208702	318.358084028377	950.339823709562	1115.144427299590	125.183887951816	1166.885791196801	967.268127111296	118.348708118254	832.754611163597	1086.239563341525	710.655604255672	878.426227941168	827.749601270574	705.487747561747	
109	36.001428571429	705.794325692305	1010.179327900806	444.393572832976	883.243594714932	1447.358045728293	278.481998765204	981.606761361619	1374.909266842758	440.003119196965	889.969336701909	1436.926653990093	613.262882831793	856.501752151688	1501.071454227906	434.801633792012	931.572226294689	951.467838747481	566.943113096067	927.732452640874	970.488236641749	292.323865890628	1025.062330358027	794.355334962489	530.650255052471	1000.531494528278	669.994632736120	604.430509794422	1087.332459362585	638.654956384696	519.063031891073	1123.226808819661	536.555320880436	540.428473236323	959.380753623098	746.889886790583	327.583346892832	861.328593953820	637.540873657260	267.165695295402	933.991588010602	554.560200310642	335.114375689145	926.921898841709	486.493646483478	347.274766033202	901.332693579137	416.121767804970	339.262047608673	810.652945012005	301.515522896987	293.118419320785	860.017762116863	192.397757125324	367.402311216636	1073.851076620651	448.020051951175	547.552480793026	980.065730267498	365.296948599401	610.787234333892	1004.540852220130	260.073662290436	557.692123868863	840.595191136183	130.297330579765	532.171707680085	1018.987750892697	133.337084256917	566.607556131062	918.664493413013	94.693548370738	603.642388335387	1119.886284265691	51.792517945584	591.153901836946	731.910018238630	37.325793118260	417.422070130456	801.039608394130	35.131053679748	332.191633260545	885.317330533475	96.370275412392	354.898127488290	1012.437962864533	44.876559363494	318.385156907956	954.596561977774	1116.778363623107	124.363307252317	1177.609397870852	978.856222877998	118.405794800004	822.816556729637	1087.657076432943	710.436514951225	857.791895985097	827.627889200664	706.475233045347	
110	36.013571428571	705.068910380235	1010.088803038932	443.475232478896	884.801012622028	1447.208780261048	279.123099316548	981.940331488270	1374.202697768891	441.128516689774	889.398054366846	1436.347324038139	613.861062968789	857.011967496151	1500.780799650682	435.232621048377	930.342780886108	951.017588110600	567.286527641741	927.157506508373	969.908562299762	292.718811429278	1023.101983584897	793.641589135026	531.361094780071	997.921350724859	669.392702006410	605.418119658305	1084.737014371278	637.911998351294	520.309383301940	1121.658740931879	538.288905841682	541.581735054522	957.279952546714	745.851117440306	327.868148766385	858.055157312196	637.367897661304	266.827658396511	929.275611265303	553.684500051011	335.139982845839	921.483510275424	485.832074552331	347.205027319257	895.714087082926	415.628189055495	339.155735801260	804.613353751346	301.380063870474	292.891483360904	853.258420156258	192.093072726937	367.375464286815	1076.913971602310	448.901027544605	548.737942156230	988.851907323098	360.632231339418	612.509682173151	1019.559460374568	257.214813307550	559.051896055334	864.253573780927	117.424720024360	533.920509709831	1041.877513623653	131.581573864752	567.853583368329	944.521629787043	86.754171141662	605.273180896359	1147.675815956904	56.549491189447	592.162640921178	724.609359452058	37.347438331222	417.374597862275	793.697587261193	35.092627099873	332.190213847599	878.005306418081	96.302666112667	354.942429558648	1005.117174498724	44.773474270814	318.415386041690	958.572222750136	1118.163692122293	123.805837297018	1187.395968596671	990.236263802053	118.773339260229	812.988092288750	1089.396983798588	710.355402888413	838.265797314939	828.449697675981	707.416181517760	
111	36.025714285714	704.582124399330	1009.920427178838	442.680544580119	886.294663073406	1446.953385804027	279.851032079708	982.319491683093	1373.450630743925	442.291346087288	888.974123138365	1435.781847552707	614.522589466145	857.575346998047	1500.409782510266	435.768789786082	929.294937888278	950.442024798786	567.735058441859	926.704577163476	969.273342097039	293.200833305160	1020.892067083991	792.339703028561	532.279410318274	994.551677470385	668.234327560946	606.526037735057	1081.530906182459	636.511937753194	521.852312810385	1119.255221101668	539.424406531177	542.874966798741	955.310146625980	744.772627114268	328.156763233393	854.861397860181	637.175456182547	266.552476323986	924.640547389778	552.798837984954	335.202836689551	916.140227649517	485.167796822127	347.157352294775	890.156129481061	415.132686499464	339.075878263182	798.607238809480	301.258600489136	292.673791315537	846.523078306633	191.790552004514	367.346006924578	1079.138226647918	449.484231316566	550.065031232097	996.962343307688	356.015870101767	614.228941862257	1033.867374130143	254.762547088455	560.442421016896	887.838586079777	105.364862394723	535.457826500422	1063.965224063932	130.671404442988	569.149304894685	969.918142923603	79.753127147731	606.775981847432	1174.273561840994	62.493399354598	593.356494214001	717.306135734432	37.388359814197	417.329368557841	786.357051179581	35.064933777600	332.183291423518	870.700884317161	96.233896126029	354.982628412804	997.791920595611	44.661633175432	318.448486739503	962.280651633647	1119.316019565999	123.517501466576	1196.236783598116	1001.303585884451	119.438465794209	803.405454901916	1091.454869473057	710.423882594491	819.922781359589	830.049851822768	708.313958339020	
112	36.037857142857	704.350470109914	1009.668169313486	442.032573562879	887.708966052779	1446.607410840651	280.658703117845	982.728611164068	1372.675963385472	443.488316850410	888.675091847415	1435.241698779985	615.243518233608	858.165532835793	1499.966355164041	436.410602705403	928.463732656930	949.769234681682	568.299849763071	926.444535604970	968.607447158129	293.767154056977	1018.510113141394	790.514665014267	533.408450622537	990.565070535075	666.579537860828	607.746113429805	1077.836336929348	634.533083131736	523.645381018654	1116.120160814288	539.975249682161	544.263319225486	953.456617084691	743.650540678641	328.481839369011	851.759907003710	636.961947466984	266.357704308567	920.105643429968	551.903582949793	335.318667695003	910.903596606682	484.493786913256	347.146301209131	884.665438868800	414.631065622690	339.035232421485	792.635462302615	301.157195632530	292.471670621249	839.811715337023	191.492085720976	367.315672679828	1080.528197756972	449.755417380766	551.501383306438	1004.197057936604	351.516495771239	615.852213427578	1047.158207406560	252.710113180160	561.808263336026	910.787257196017	94.289845646799	536.653806574877	1084.758360650676	130.523177078101	570.461872802643	994.235252815025	73.730584555075	608.067443419840	1199.100837624092	69.359242414826	594.777137057726	709.998223774846	37.448529793423	417.288993117941	779.017669814678	35.049486230381	332.170795396587	863.403427614251	96.164728068337	355.016521147374	990.461389839150	44.543473042960	318.483704521398	965.726204483125	1120.247310334592	123.500474882476	1204.134739377788	1011.950035213818	120.386304294985	794.209142471190	1093.795104801960	710.646444496111	802.826269773207	832.257549689610	709.173973123073	
